<svg width="158" height="210" viewBox="0 0 158 210" fill="none" xmlns="http://www.w3.org/2000/svg">
<path d="M63.3519 73.4868C63.3519 114.072 53.3872 146.974 41.0952 146.974C28.8031 146.974 18.8384 114.072 18.8384 73.4868C18.8384 32.9011 28.8031 0 41.0952 0C53.3872 0 63.3519 32.9011 63.3519 73.4868Z" fill="url(#paint0_linear_1268_4629)"/>
<path d="M89.0872 73.4868C89.0872 114.072 83.4821 146.974 76.5678 146.974C69.6535 146.974 64.0483 114.072 64.0483 73.4868C64.0483 32.9011 69.6535 0 76.5678 0C83.4821 0 89.0872 32.9011 89.0872 73.4868Z" fill="url(#paint1_linear_1268_4629)"/>
<path d="M111.342 74.1882C111.342 107.43 106.671 134.377 100.909 134.377C95.1473 134.377 90.4763 107.43 90.4763 74.1882C90.4763 40.9466 95.1473 13.999 100.909 13.999C106.671 13.999 111.342 40.9466 111.342 74.1882Z" fill="url(#paint2_linear_1268_4629)"/>
<path d="M125.254 73.4872C125.254 94.7463 122.14 111.98 118.299 111.98C114.458 111.98 111.344 94.7463 111.344 73.4872C111.344 52.2281 114.458 34.9941 118.299 34.9941C122.14 34.9941 125.254 52.2281 125.254 73.4872Z" fill="url(#paint3_linear_1268_4629)"/>
<path d="M139.161 74.1857C139.161 85.7816 137.293 95.1819 134.988 95.1819C132.684 95.1819 130.815 85.7816 130.815 74.1857C130.815 62.5898 132.684 53.1895 134.988 53.1895C137.293 53.1895 139.161 62.5898 139.161 74.1857Z" fill="url(#paint4_linear_1268_4629)"/>
<path d="M4.37657 190.265V197.293H15.3934V199.585H4.37657V207.071H18.4117V209.363H0V187.974H18.4117V190.265H4.37657ZM28.9665 192.863C29.6103 192.863 30.2543 192.924 30.8982 193.046C31.5421 193.148 32.1558 193.301 32.7394 193.504C33.3431 193.688 33.8963 193.921 34.3995 194.207C34.9226 194.493 35.3753 194.807 35.7577 195.154L34.5504 196.988C33.7254 196.357 32.8802 195.868 32.015 195.521C31.1699 195.174 30.2543 195.001 29.2683 195.001C28.544 195.001 27.8799 195.124 27.2761 195.368C26.6724 195.593 26.1494 195.968 25.7067 196.499C25.2639 197.007 24.9119 197.67 24.6503 198.485C24.4089 199.299 24.2881 200.277 24.2881 201.418C24.2881 202.559 24.4089 203.537 24.6503 204.351C24.9119 205.166 25.274 205.838 25.7369 206.368C26.1996 206.877 26.753 207.254 27.397 207.499C28.061 207.723 28.7854 207.835 29.5702 207.835C30.5561 207.835 31.4717 207.662 32.3168 207.315C33.182 206.968 34.0272 206.48 34.8522 205.849L36.0596 207.682C35.6771 208.029 35.2244 208.343 34.7013 208.629C34.1982 208.915 33.6449 209.159 33.0412 209.363C32.4577 209.546 31.8439 209.688 31.2001 209.79C30.5561 209.913 29.9122 209.974 29.2683 209.974C27.8396 209.974 26.5316 209.78 25.3445 209.393C24.1773 209.026 23.1813 208.487 22.3564 207.774C21.5313 207.04 20.8874 206.143 20.4247 205.085C19.9819 204.026 19.7606 202.804 19.7606 201.418C19.7606 200.054 19.9819 198.841 20.4247 197.782C20.8874 196.702 21.5212 195.807 22.3262 195.093C23.131 194.36 24.0969 193.81 25.2238 193.443C26.3505 193.057 27.5982 192.863 28.9665 192.863ZM55.685 209.363H51.4593V199.738C51.4593 198.271 51.0971 197.221 50.3733 196.59C49.6489 195.938 48.6027 195.613 47.2343 195.613H43.3105V209.363H39.0848V187.974H43.3105V193.474H47.2343C50.1118 193.474 52.235 194.004 53.6023 195.063C54.9908 196.101 55.685 197.66 55.685 199.738V209.363ZM68.1989 207.988C68.8434 207.988 69.447 207.865 70.0099 207.621C70.5729 207.376 71.0663 206.999 71.4889 206.49C71.9115 205.96 72.2435 205.279 72.485 204.443C72.746 203.607 72.8773 202.599 72.8773 201.418C72.8773 200.237 72.746 199.229 72.485 198.393C72.2435 197.557 71.9115 196.885 71.4889 196.376C71.0663 195.846 70.5729 195.46 70.0099 195.215C69.447 194.971 68.8434 194.849 68.1989 194.849C67.5545 194.849 66.9509 194.971 66.388 195.215C65.825 195.46 65.3315 195.846 64.909 196.376C64.4864 196.885 64.1438 197.557 63.8828 198.393C63.6413 199.229 63.5205 200.237 63.5205 201.418C63.5205 202.599 63.6413 203.607 63.8828 204.443C64.1438 205.279 64.4864 205.96 64.909 206.49C65.3315 206.999 65.825 207.376 66.388 207.621C66.9509 207.865 67.5545 207.988 68.1989 207.988ZM68.1989 192.863C69.5466 192.863 70.7841 193.057 71.9115 193.443C73.0584 193.81 74.0349 194.36 74.8392 195.093C75.6436 195.807 76.2684 196.702 76.7106 197.782C77.1739 198.841 77.4048 200.054 77.4048 201.418C77.4048 202.804 77.1739 204.026 76.7106 205.085C76.2684 206.143 75.6436 207.04 74.8392 207.774C74.0349 208.487 73.0584 209.026 71.9115 209.393C70.7841 209.78 69.5466 209.974 68.1989 209.974C66.8301 209.974 65.5836 209.78 64.4562 209.393C63.3289 209.026 62.363 208.487 61.5586 207.774C60.7543 207.04 60.1204 206.143 59.6571 205.085C59.2149 204.026 58.9931 202.804 58.9931 201.418C58.9931 200.054 59.2149 198.841 59.6571 197.782C60.1204 196.702 60.7543 195.807 61.5586 195.093C62.363 194.36 63.3289 193.81 64.4562 193.443C65.5836 193.057 66.8301 192.863 68.1989 192.863ZM99.7464 190.265H91.597V209.363H87.2204V190.265H79.0709V187.974H99.7464V190.265ZM99.7464 193.474H103.972V203.099C103.972 204.565 104.334 205.624 105.059 206.276C105.783 206.907 106.829 207.224 108.198 207.224H112.122V193.474H116.347V209.363H108.198C105.32 209.363 103.187 208.843 101.799 207.804C100.43 206.745 99.7464 205.176 99.7464 203.099V193.474ZM137.186 209.363H132.96V199.738C132.96 198.271 132.598 197.221 131.873 196.59C131.149 195.938 130.103 195.613 128.734 195.613H124.811V209.363H120.585V193.474H128.734C131.612 193.474 133.736 194.004 135.103 195.063C136.491 196.101 137.186 197.66 137.186 199.738V209.363ZM150.303 207.835C151.289 207.835 152.205 207.662 153.05 207.315C153.915 206.968 154.76 206.48 155.585 205.849L156.793 207.682C156.409 208.029 155.957 208.343 155.434 208.629C154.93 208.915 154.378 209.159 153.774 209.363C153.19 209.546 152.576 209.688 151.933 209.79C151.289 209.913 150.644 209.974 150.001 209.974C148.572 209.974 147.264 209.78 146.078 209.393C144.91 209.026 143.914 208.487 143.09 207.774C142.264 207.04 141.62 206.143 141.158 205.085C140.714 204.026 140.494 202.804 140.494 201.418C140.494 200.054 140.705 198.841 141.128 197.782C141.57 196.702 142.173 195.807 142.939 195.093C143.723 194.36 144.648 193.81 145.715 193.443C146.781 193.057 147.958 192.863 149.247 192.863C150.454 192.863 151.591 193.046 152.658 193.413C153.723 193.779 154.65 194.318 155.434 195.032C156.219 195.724 156.842 196.57 157.306 197.568C157.768 198.566 158 199.696 158 200.96V203.099H145.112C145.353 204.79 145.927 206.001 146.832 206.735C147.757 207.468 148.915 207.835 150.303 207.835ZM149.247 194.849C148.663 194.849 148.12 194.96 147.617 195.185C147.113 195.409 146.671 195.765 146.289 196.254C145.927 196.743 145.625 197.374 145.383 198.149C145.162 198.923 145.041 199.86 145.021 200.96H153.473C153.473 199.901 153.352 198.984 153.11 198.21C152.869 197.435 152.546 196.804 152.144 196.315C151.761 195.807 151.308 195.44 150.786 195.215C150.282 194.971 149.769 194.849 149.247 194.849Z" fill="url(#paint5_linear_1268_4629)"/>
<defs>
<linearGradient id="paint0_linear_1268_4629" x1="41.0952" y1="0" x2="41.0952" y2="146.974" gradientUnits="userSpaceOnUse">
<stop stop-color="#ABADC6"/>
<stop offset="1" stop-color="#1E2235" stop-opacity="0"/>
</linearGradient>
<linearGradient id="paint1_linear_1268_4629" x1="76.5678" y1="0" x2="76.5678" y2="146.974" gradientUnits="userSpaceOnUse">
<stop stop-color="#ABADC6"/>
<stop offset="1" stop-color="#1E2235" stop-opacity="0"/>
</linearGradient>
<linearGradient id="paint2_linear_1268_4629" x1="100.909" y1="13.999" x2="100.909" y2="134.377" gradientUnits="userSpaceOnUse">
<stop stop-color="#ABADC6"/>
<stop offset="1" stop-color="#1E2235" stop-opacity="0"/>
</linearGradient>
<linearGradient id="paint3_linear_1268_4629" x1="118.299" y1="34.9941" x2="118.299" y2="111.98" gradientUnits="userSpaceOnUse">
<stop stop-color="#ABADC6"/>
<stop offset="1" stop-color="#1E2235" stop-opacity="0"/>
</linearGradient>
<linearGradient id="paint4_linear_1268_4629" x1="134.988" y1="53.1895" x2="134.988" y2="95.1819" gradientUnits="userSpaceOnUse">
<stop stop-color="#ABADC6"/>
<stop offset="1" stop-color="#1E2235" stop-opacity="0"/>
</linearGradient>
<linearGradient id="paint5_linear_1268_4629" x1="79" y1="175.974" x2="79" y2="258.474" gradientUnits="userSpaceOnUse">
<stop stop-color="#ABADC6"/>
<stop offset="1" stop-color="#535460"/>
</linearGradient>
</defs>
</svg>
